#!OML:ASF E:\Steps\Project 1\Capture day 1\Session 2\Subject.ASF
:FULLY-SPECIFIED
:DEGREES
239
root 9.05223 16.3419 30.7781 -147.955 -2.65965 178.807
lowerback -23.0232 -1.78306 -5.60085
upperback -1.46738 -1.27023 -0.559827
thorax 11.3812 -1.04799 2.13525
lowerneck 4.45922 -5.23097 5.02552
upperneck -7.14135 -7.06545 -3.91192
head -3.47148 -3.54914 -1.84603
rclavicle -4.96962e-015 9.54166e-015
rhumerus -41.8988 -21.8348 -74.0767
rradius 28.2946
rwrist 2.75524
rhand -9.21027 -52.8789
rfingers 7.12502
rthumb 16.744 -82.1768
lclavicle -4.96962e-015 9.54166e-015
lhumerus -33.362 5.74447 76.1982
lradius 22.598
lwrist -5.63941
lhand -19.4751 -13.5536
lfingers 7.12502
lthumb 6.8465 16.3157
rfemur -34.5257 9.43552 16.1817
rtibia 16.5026
rfoot -25.4547 -13.2891
rtoes -31.191
lfemur -34.3583 -10.7212 -15.9063
ltibia 15.2644
lfoot -12.7466 5.57312
ltoes -38.3978
240
root 9.05451 16.3247 30.7835 -147.296 -2.56666 178.894
lowerback -23.1874 -1.77295 -5.51829
upperback -1.57465 -1.29392 -0.500591
thorax 11.3496 -1.0607 2.14449
lowerneck 4.36783 -5.19077 4.94521
upperneck -7.22136 -7.03965 -3.99107
head -3.48042 -3.53623 -1.86109
rclavicle -7.95139e-016 3.18055e-015
rhumerus -41.9038 -21.8995 -73.9057
rradius 28.2391
rwrist 2.81567
rhand -9.38104 -52.4154
rfingers 7.12502
rthumb 16.5796 -81.7271
lclavicle -7.95139e-016 3.18055e-015
lhumerus -33.3675 5.86174 76.2037
lradius 22.509
lwrist -5.82606
lhand -19.5529 -13.5004
lfingers 7.12502
lthumb 6.77146 16.3713
rfemur -35.8318 9.62557 16.0794
rtibia 17.5208
rfoot -25.9295 -13.4575
rtoes -31.6513
lfemur -35.6797 -10.7919 -15.5739
ltibia 16.3658
lfoot -13.3329 5.82462
ltoes -38.1429
241
root 9.05664 16.3102 30.7852 -146.897 -2.4682 178.994
lowerback -23.1003 -1.71112 -5.41922
upperback -1.60721 -1.2474 -0.488368
thorax 11.2591 -1.03237 2.11902
lowerneck 4.30557 -5.21381 5.00884
upperneck -7.38156 -7.08871 -4.04943
head -3.53299 -3.56513 -1.8897
rclavicle -7.15625e-015 1.31198e-014
rhumerus -41.9644 -21.7783 -73.964
rradius 28.3614
rwrist 2.73355
rhand -9.10786 -51.7139
rfingers 7.12502
rthumb 16.8426 -81.0034
lclavicle -7.15625e-015 1.31198e-014
lhumerus -33.3158 5.80775 76.22
lradius 22.405
lwrist -6.09116
lhand -19.6273 -13.3745
lfingers 7.12502
lthumb 6.69957 16.4995
rfemur -36.8694 9.80796 16.0362
rtibia 18.593
rfoot -26.325 -13.5643
rtoes -31.9461
lfemur -36.6863 -10.9549 -15.2575
ltibia 17.4139
lfoot -13.926 6.10876
ltoes -37.5976
242
root 9.05992 16.297 30.7861 -146.532 -2.3205 179.009
lowerback -22.9449 -1.64882 -5.42829
upperback -1.64355 -1.17265 -0.519435
thorax 11.126 -0.994529 2.11707
lowerneck 4.25764 -5.27205 5.08114
upperneck -7.51791 -7.17151 -4.01172
head -3.57739 -3.61288 -1.88562
rclavicle 3.97569e-015 -2.38542e-015
rhumerus -42.0111 -21.6904 -74.0656
rradius 28.4105
rwrist 2.65931
rhand -8.94196 -50.9804
rfingers 7.12502
rthumb 17.0023 -80.2563
lclavicle 3.97569e-015 -2.38542e-015
lhumerus -33.4259 5.50325 76.268
lradius 22.5357
lwrist -6.0801
lhand -19.6072 -13.3713
lfingers 7.12502
lthumb 6.71899 16.5021
rfemur -37.8786 10.2016 15.8193
rtibia 19.7082
rfoot -26.7321 -13.997
rtoes -32.6745
lfemur -37.6437 -11.0835 -15.0968
ltibia 18.4897
lfoot -14.4374 6.40815
ltoes -37.7735
243
root 9.05881 16.2834 30.7884 -146.2 -2.24172 179.032
lowerback -22.7164 -1.55719 -5.34299
upperback -1.67823 -1.0831 -0.573105
thorax 10.9517 -0.942578 2.04178
lowerneck 4.16973 -5.33434 5.2396
upperneck -7.63262 -7.25794 -4.01233
head -3.61332 -3.66398 -1.91067
rclavicle -9.74045e-015 -3.22031e-014
rhumerus -42.12 -21.8109 -74.0673
rradius 28.4398
rwrist 2.65124
rhand -8.8179 -50.3282
rfingers 7.12502
rthumb 17.1217 -79.5938
lclavicle -9.74045e-015 -3.22031e-014
lhumerus -33.5694 4.9483 76.3818
lradius 22.7216
lwrist -5.78467
lhand -19.6721 -13.4243
lfingers 7.12502
lthumb 6.65632 16.4511
rfemur -38.7882 10.5052 15.643
rtibia 20.7583
rfoot -27.1925 -14.3927
rtoes -33.2945
lfemur -38.6306 -11.3291 -14.9086
ltibia 19.6677
lfoot -15.0077 6.67182
ltoes -37.2074
244
root 9.05708 16.2646 30.8001 -145.696 -2.37613 179.065
lowerback -22.4808 -1.53028 -5.15349
upperback -1.77841 -1.11927 -0.571978
thorax 10.7086 -0.946171 1.9288
lowerneck 3.99973 -5.40504 5.38561
upperneck -7.78392 -7.36623 -4.00508
head -3.64651 -3.72892 -1.93133
rclavicle 4.17448e-015 -5.1684e-015
rhumerus -42.2229 -21.9748 -73.9938
rradius 28.5397
rwrist 2.83531
rhand -8.7306 -50.1955
rfingers 7.12502
rthumb 17.2057 -79.4538
lclavicle 4.17448e-015 -5.1684e-015
lhumerus -33.6471 4.58626 76.4559
lradius 22.7773
lwrist -5.5934
lhand -19.7142 -13.4179
lfingers 7.12502
lthumb 6.61574 16.4587
rfemur -39.9123 10.3349 15.6111
rtibia 21.8404
rfoot -27.8143 -14.2486
rtoes -32.6785
lfemur -40.0719 -11.5535 -14.6086
ltibia 21.179
lfoot -15.588 6.72016
ltoes -36.3582
245
root 9.06161 16.238 30.8076 -145.195 -2.42932 179.054
lowerback -22.266 -1.57391 -5.11698
upperback -1.88046 -1.21415 -0.524708
thorax 10.4832 -0.986939 1.93606
lowerneck 3.93518 -5.43185 5.36534
upperneck -7.98141 -7.42654 -4.0036
head -3.70542 -3.7649 -1.92386
rclavicle 2.78299e-015 1.27222e-014
rhumerus -42.1904 -21.7582 -74.092
rradius 28.6816
rwrist 2.82021
rhand -8.71576 -50.251
rfingers 7.12502
rthumb 17.22 -79.508
lclavicle 2.78299e-015 1.27222e-014
lhumerus -33.7226 4.6718 76.4122
lradius 22.7828
lwrist -5.62222
lhand -19.4929 -13.4029
lfingers 7.12502
lthumb 6.82938 16.467
rfemur -41.1004 10.2108 15.54
rtibia 22.9981
rfoot -28.4002 -14.1584
rtoes -32.2226
lfemur -41.4926 -11.681 -14.3783
ltibia 22.7478
lfoot -16.1569 6.93031
ltoes -37.1204
246
root 9.06742 16.2099 30.8075 -144.893 -2.46197 178.882
lowerback -21.9923 -1.64161 -5.22376
upperback -1.90495 -1.28967 -0.558071
thorax 10.3132 -1.02202 1.94236
lowerneck 3.97708 -5.41741 5.31929
upperneck -8.15824 -7.42847 -4.04732
head -3.77579 -3.76703 -1.92781
rclavicle -2.04748e-014 -6.75868e-015
rhumerus -42.1363 -21.1911 -74.4637
rradius 28.9096
rwrist 2.25165
rhand -8.55588 -49.9712
rfingers 7.12502
rthumb 17.3739 -79.2147
lclavicle -2.04748e-014 -6.75868e-015
lhumerus -33.762 4.46628 76.4398
lradius 22.8404
lwrist -5.40435
lhand -19.2955 -13.3719
lfingers 7.12502
lthumb 7.01987 16.4917
rfemur -42.0818 10.3234 15.2412
rtibia 24.2446
rfoot -28.9277 -14.5999
rtoes -32.6305
lfemur -42.5839 -12.0217 -14.3164
ltibia 24.2203
lfoot -16.7938 7.20947
ltoes -37.3949
247
root 9.06989 16.1728 30.8249 -143.965 -1.96374 179.124
lowerback -22.2853 -1.4142 -5.04267
upperback -2.07201 -1.04577 -0.630633
thorax 10.2607 -0.907276 1.8293
lowerneck 3.88825 -5.42026 5.35837
upperneck -8.36026 -7.46014 -4.09078
head -3.83595 -3.79007 -1.94827
rclavicle 1.19271e-015 3.97569e-016
rhumerus -42.0335 -20.7754 -74.896
rradius 29.1505
rwrist 1.72354
rhand -8.46557 -49.7547
rfingers 7.12502
rthumb 17.4608 -78.9905
lclavicle 1.19271e-015 3.97569e-016
lhumerus -33.6671 3.97384 76.5672
lradius 22.903
lwrist -5.07814
lhand -19.3012 -13.479
lfingers 7.12502
lthumb 7.01436 16.3848
rfemur -44.2134 10.7045 15.042
rtibia 25.9898
rfoot -29.6127 -14.4576
rtoes -32.3242
lfemur -44.516 -11.664 -13.9415
ltibia 25.9406
lfoot -17.4788 7.4341
ltoes -36.1135
248
root 9.07173 16.1459 30.8127 -144.165 -2.19427 178.874
lowerback -21.5902 -1.51706 -5.16054
upperback -1.93828 -1.15349 -0.656116
thorax 10.0427 -0.945548 1.84779
lowerneck 3.77525 -5.4308 5.37892
upperneck -8.46548 -7.49861 -4.14418
head -3.85727 -3.81408 -1.96977
rclavicle 1.15295e-014 2.14687e-014
rhumerus -42.0985 -20.3461 -75.2181
rradius 29.5339
rwrist 1.19819
rhand -8.47988 -50.0608
rfingers 7.12502
rthumb 17.4471 -79.2978
lclavicle 1.15295e-014 2.14687e-014
lhumerus -33.6895 3.64631 76.7235
lradius 22.925
lwrist -4.95931
lhand -19.3353 -13.5785
lfingers 7.12502
lthumb 6.98146 16.2864
rfemur -44.4137 10.692 14.8045
rtibia 27.0683
rfoot -30.4149 -14.6577
rtoes -31.3973
lfemur -45.0763 -12.1122 -14.0365
ltibia 27.5056
lfoot -18.2936 7.23895
ltoes -35.1001
249
root 9.07564 16.108 30.812 -143.949 -2.04597 178.969
lowerback -21.1956 -1.45256 -5.15118
upperback -1.97723 -1.09495 -0.601215
thorax 9.78044 -0.909883 1.92878
lowerneck 3.71887 -5.45649 5.43547
upperneck -8.78208 -7.56858 -4.18367
head -3.96768 -3.85915 -1.98819
rclavicle -2.38542e-015 -1.66979e-014
rhumerus -42.0741 -19.6926 -75.5908
rradius 29.9851
rwrist 0.444741
rhand -8.23448 -50.777
rfingers 7.12502
rthumb 17.6832 -79.9929
lclavicle -2.38542e-015 -1.66979e-014
lhumerus -33.8353 3.27621 76.9417
lradius 23.0492
lwrist -4.69046
lhand -19.3242 -13.4728
lfingers 7.12502
lthumb 6.99224 16.3917
rfemur -45.3977 10.856 14.8029
rtibia 28.5298
rfoot -31.1335 -14.656
rtoes -31.4265
lfemur -46.1694 -11.9244 -13.9237
ltibia 29.2599
lfoot -19.3873 6.87662
ltoes -33.0493
250
root 9.07705 16.0679 30.8098 -143.925 -2.13964 178.916
lowerback -20.6249 -1.47192 -5.09885
upperback -1.93458 -1.14739 -0.580808
thorax 9.52022 -0.919576 1.91685
lowerneck 3.6526 -5.46683 5.52649
upperneck -9.14089 -7.62253 -4.23139
head -4.09327 -3.89898 -2.01642
rclavicle 5.76476e-015 6.75868e-015
rhumerus -41.8872 -19.3713 -75.7975
rradius 29.8537
rwrist -0.173027
rhand -8.80037 -49.6664
rfingers 7.12502
rthumb 17.1386 -78.9306
lclavicle 5.76476e-015 6.75868e-015
lhumerus -33.9331 2.92317 77.1119
lradius 23.1412
lwrist -4.56191
lhand -19.3901 -13.3934
lfingers 7.12502
lthumb 6.92861 16.4732
rfemur -45.9479 10.6111 14.874
rtibia 29.5977
rfoot -31.6948 -14.5003
rtoes -31.3365
lfemur -47.0813 -11.9222 -13.9606
ltibia 31.0165
lfoot -20.5286 6.20076
ltoes -29.645
